<svg xmlns="http://www.w3.org/2000/svg" viewBox="0 0 32 32" width="32" height="32">
  <!-- Gradient background -->
  <defs>
    <linearGradient id="gradient" x1="0%" y1="0%" x2="100%" y2="100%">
      <stop offset="0%" stop-color="#4f46e5" /> <!-- Indigo -->
      <stop offset="100%" stop-color="#9333ea" /> <!-- Purple -->
    </linearGradient>
    <filter id="shadow" x="-20%" y="-20%" width="140%" height="140%">
      <feDropShadow dx="0" dy="1" stdDeviation="1" flood-opacity="0.3" />
    </filter>
  </defs>
  
  <!-- Rounded square background -->
  <rect x="1" y="1" width="30" height="30" rx="6" fill="url(#gradient)" filter="url(#shadow)" />
  
  <!-- Document icon with magnifying glass -->
  <path d="M9 8h8v1h-8zM9 11h6v1h-6zM9 14h10v1h-10zM9 17h6v1h-6z" fill="white" />
  <path d="M8 6v16h10v-11l-5-5h-5zm1 1h3v4h4v10h-7v-14zm4 0.5l2.5 2.5h-2.5v-2.5z" fill="white" opacity="0.9" />
  
  <!-- Magnifying glass -->
  <circle cx="20" cy="19" r="4" fill="none" stroke="white" stroke-width="1.5" />
  <path d="M23 22l3 3" stroke="white" stroke-width="1.5" stroke-linecap="round" />
</svg>
